<svg xmlns="http://www.w3.org/2000/svg" xmlns:xlink="http://www.w3.org/1999/xlink" width="500" zoomAndPan="magnify" viewBox="0 0 375 374.999991" height="500" preserveAspectRatio="xMidYMid meet" version="1.0"><defs><clipPath id="d53b878296"><path d="M 118 82.050781 L 365 82.050781 L 365 331 L 118 331 Z M 118 82.050781 " clip-rule="nonzero"/></clipPath><clipPath id="fc54213020"><path d="M 179.476562 318.140625 L 352.542969 145.523438 C 368.894531 129.21875 368.90625 102.742188 352.582031 86.417969 L 348.585938 82.417969 L 118.238281 312.765625 L 122.269531 316.800781 C 139.988281 334.527344 162.820312 334.796875 179.476562 318.140625 " clip-rule="nonzero"/></clipPath><clipPath id="93f87ecd6a"><path d="M 10 160 L 129 160 L 129 292.949219 L 10 292.949219 Z M 10 160 " clip-rule="nonzero"/></clipPath><clipPath id="f9ec748143"><path d="M 21.480469 167.015625 C 6.09375 182.40625 6.703125 201.230469 21.078125 215.59375 L 97.78125 292.308594 L 128.949219 261.140625 L 28.144531 160.339844 Z M 21.480469 167.015625 " clip-rule="nonzero"/></clipPath><clipPath id="7d41b46ed0"><path d="M 136 44 L 328.328125 44 L 328.328125 221 L 136 221 Z M 136 44 " clip-rule="nonzero"/></clipPath><clipPath id="3f15044b45"><path d="M 324.910156 58.746094 C 306.914062 40.75 283.277344 40.210938 266.363281 57.136719 L 136.101562 187.386719 L 169.398438 220.6875 L 328.125 61.972656 Z M 324.910156 58.746094 " clip-rule="nonzero"/></clipPath><clipPath id="af4a43af5f"><path d="M 48 121 L 180.941406 121 L 180.941406 241 L 48 241 Z M 48 121 " clip-rule="nonzero"/></clipPath><clipPath id="9502945f21"><path d="M 55.5625 132.9375 C 70.949219 117.546875 89.773438 118.15625 104.152344 132.535156 L 180.867188 209.246094 L 149.699219 240.414062 L 48.882812 139.613281 Z M 55.5625 132.9375 " clip-rule="nonzero"/></clipPath></defs><g clip-path="url(#d53b878296)"><g clip-path="url(#fc54213020)"><path fill="#ef4f67" d="M 0 34.121094 L 375.058594 34.121094 L 375.058594 340.878906 L 0 340.878906 Z M 0 34.121094 " fill-opacity="1" fill-rule="nonzero"/></g></g><g clip-path="url(#93f87ecd6a)"><g clip-path="url(#f9ec748143)"><path fill="#ef4f67" d="M 0 34.121094 L 375.058594 34.121094 L 375.058594 340.878906 L 0 340.878906 Z M 0 34.121094 " fill-opacity="1" fill-rule="nonzero"/></g></g><g clip-path="url(#7d41b46ed0)"><g clip-path="url(#3f15044b45)"><path fill="#ef4f67" d="M 0 34.121094 L 375.058594 34.121094 L 375.058594 340.878906 L 0 340.878906 Z M 0 34.121094 " fill-opacity="1" fill-rule="nonzero"/></g></g><g clip-path="url(#af4a43af5f)"><g clip-path="url(#9502945f21)"><path fill="#ef4f67" d="M 0 34.121094 L 375.058594 34.121094 L 375.058594 340.878906 L 0 340.878906 Z M 0 34.121094 " fill-opacity="1" fill-rule="nonzero"/></g></g></svg>